<mxfile host="app.diagrams.net" agent="Mozilla/5.0 (Windows NT 10.0; Win64; x64) AppleWebKit/537.36 (KHTML, like Gecko) Chrome/134.0.0.0 Safari/537.36" version="26.0.16">
  <diagram name="Page-1" id="ecHj6hP_kAv9cv6DVpP2">
    <mxGraphModel dx="794" dy="360" grid="1" gridSize="10" guides="1" tooltips="1" connect="1" arrows="1" fold="1" page="1" pageScale="1" pageWidth="827" pageHeight="1169" math="0" shadow="0">
      <root>
        <mxCell id="0" />
        <mxCell id="1" parent="0" />
        <mxCell id="t0qhK6S-fKHDHithwiiv-1" value="" style="whiteSpace=wrap;html=1;aspect=fixed;fillColor=#f8cecc;strokeColor=#b85450;" parent="1" vertex="1">
          <mxGeometry x="190" y="120" width="430" height="430" as="geometry" />
        </mxCell>
        <mxCell id="t0qhK6S-fKHDHithwiiv-2" value="Welcome" style="text;html=1;align=center;verticalAlign=middle;whiteSpace=wrap;rounded=0;fontSize=19;" parent="1" vertex="1">
          <mxGeometry x="360" y="160" width="100" height="50" as="geometry" />
        </mxCell>
        <mxCell id="t0qhK6S-fKHDHithwiiv-3" value="New booking&amp;nbsp;" style="rounded=1;whiteSpace=wrap;html=1;" parent="1" vertex="1">
          <mxGeometry x="361" y="230" width="109" height="30" as="geometry" />
        </mxCell>
        <mxCell id="t0qhK6S-fKHDHithwiiv-4" value="Today&#39;s booking&amp;nbsp;" style="rounded=1;whiteSpace=wrap;html=1;" parent="1" vertex="1">
          <mxGeometry x="360" y="280" width="110" height="30" as="geometry" />
        </mxCell>
        <mxCell id="t0qhK6S-fKHDHithwiiv-5" value="Calendar" style="rounded=1;whiteSpace=wrap;html=1;" parent="1" vertex="1">
          <mxGeometry x="361.5" y="330" width="109" height="30" as="geometry" />
        </mxCell>
        <mxCell id="t0qhK6S-fKHDHithwiiv-6" value="New Client" style="rounded=1;whiteSpace=wrap;html=1;" parent="1" vertex="1">
          <mxGeometry x="360" y="380" width="109" height="30" as="geometry" />
        </mxCell>
        <mxCell id="t0qhK6S-fKHDHithwiiv-7" value="Statistics" style="rounded=1;whiteSpace=wrap;html=1;rotation=0;" parent="1" vertex="1">
          <mxGeometry x="361.5" y="480" width="109" height="30" as="geometry" />
        </mxCell>
        <mxCell id="t0qhK6S-fKHDHithwiiv-8" value="" style="rounded=0;whiteSpace=wrap;html=1;" parent="1" vertex="1">
          <mxGeometry x="530" y="120" width="90" height="30" as="geometry" />
        </mxCell>
        <mxCell id="t0qhK6S-fKHDHithwiiv-9" value="X" style="whiteSpace=wrap;html=1;aspect=fixed;" parent="1" vertex="1">
          <mxGeometry x="590" y="120" width="30" height="30" as="geometry" />
        </mxCell>
        <mxCell id="t0qhK6S-fKHDHithwiiv-10" value="" style="whiteSpace=wrap;html=1;aspect=fixed;" parent="1" vertex="1">
          <mxGeometry x="560" y="120" width="30" height="30" as="geometry" />
        </mxCell>
        <mxCell id="t0qhK6S-fKHDHithwiiv-11" value="-&amp;nbsp;" style="whiteSpace=wrap;html=1;aspect=fixed;" parent="1" vertex="1">
          <mxGeometry x="530" y="120" width="30" height="30" as="geometry" />
        </mxCell>
        <mxCell id="t0qhK6S-fKHDHithwiiv-12" value="" style="whiteSpace=wrap;html=1;aspect=fixed;" parent="1" vertex="1">
          <mxGeometry x="570" y="130" width="10" height="10" as="geometry" />
        </mxCell>
        <mxCell id="t0qhK6S-fKHDHithwiiv-13" value="File" style="rounded=0;whiteSpace=wrap;html=1;" parent="1" vertex="1">
          <mxGeometry x="190" y="140" width="50" height="20" as="geometry" />
        </mxCell>
        <mxCell id="t0qhK6S-fKHDHithwiiv-15" value="Help" style="rounded=0;whiteSpace=wrap;html=1;" parent="1" vertex="1">
          <mxGeometry x="240" y="140" width="50" height="20" as="geometry" />
        </mxCell>
        <mxCell id="l-xtsFgXqw2_W3S1MLEl-1" value="Manage bookings" style="rounded=1;whiteSpace=wrap;html=1;rotation=0;" vertex="1" parent="1">
          <mxGeometry x="361.5" y="430" width="109" height="30" as="geometry" />
        </mxCell>
      </root>
    </mxGraphModel>
  </diagram>
</mxfile>
